<?xml version="1.0" standalone="no"?>
<!DOCTYPE svg PUBLIC "-//W3C//DTD SVG 20010904//EN"
 "http://www.w3.org/TR/2001/REC-SVG-20010904/DTD/svg10.dtd">
<svg version="1.0" xmlns="http://www.w3.org/2000/svg"
 width="540.000000pt" height="540.000000pt" viewBox="0 0 540.000000 540.000000"
 preserveAspectRatio="xMidYMid meet">

<g transform="translate(0.000000,540.000000) scale(0.100000,-0.100000)"
fill="#1969ff" stroke="none">
<path d="M1063 5133 c-40 -2 -75 -9 -80 -16 -5 -7 -18 -37 -30 -67 -87 -228
-115 -297 -124 -314 -6 -11 -19 -42 -29 -70 -19 -51 -72 -183 -90 -221 -10
-23 -51 -124 -85 -210 -13 -33 -39 -98 -60 -145 -20 -47 -43 -105 -52 -130 -8
-25 -23 -61 -33 -81 -27 -52 -59 -147 -52 -153 3 -3 47 -6 98 -6 106 0 107 1
138 105 10 33 24 69 31 80 6 11 18 38 25 60 25 79 52 133 68 137 9 1 157 2
329 0 l312 -3 17 -52 c9 -28 20 -56 24 -62 4 -5 17 -39 29 -75 20 -59 30 -84
65 -160 11 -24 16 -25 114 -28 70 -2 102 1 102 8 0 7 -13 42 -30 80 -16 38
-30 72 -30 76 0 4 -9 25 -20 48 -22 45 -147 354 -209 516 -12 30 -27 66 -35
80 -7 14 -21 50 -31 80 -10 30 -21 60 -26 65 -4 6 -19 40 -32 75 -14 36 -39
101 -57 145 -18 44 -43 109 -57 145 -31 82 -47 101 -87 98 -17 -1 -63 -4 -103
-5z m61 -265 c10 -24 25 -63 32 -87 8 -24 18 -49 23 -55 4 -6 16 -36 26 -66
10 -30 28 -79 41 -107 13 -29 26 -65 30 -80 4 -16 17 -48 29 -73 13 -25 25
-59 26 -75 l4 -30 -235 0 -235 0 -3 22 c-2 13 4 33 12 45 9 12 16 28 16 36 0
7 13 41 29 75 15 34 36 87 46 117 10 30 21 60 25 65 4 6 17 40 29 77 13 37 27
70 32 73 5 4 9 13 9 21 0 21 28 84 37 84 5 0 17 -19 27 -42z"/>
<path d="M2090 4436 l0 -706 313 0 c171 0 340 5 374 10 157 26 309 132 354
249 31 80 32 208 2 274 -26 56 -113 144 -151 153 -15 3 -42 10 -61 16 l-33 10
58 30 c77 39 109 70 147 143 27 53 31 70 31 145 0 78 -3 90 -36 155 -41 80
-91 131 -163 168 -97 49 -102 50 -477 55 l-358 4 0 -706z m710 492 c39 -17 64
-38 85 -68 26 -37 29 -51 29 -114 0 -57 -4 -79 -23 -109 -34 -56 -89 -86 -174
-97 -80 -10 -387 -13 -411 -4 -14 5 -16 33 -16 208 0 112 3 206 8 210 4 5 106
6 227 4 209 -4 223 -6 275 -30z m15 -603 c55 -15 115 -66 115 -96 0 -10 5 -21
10 -24 18 -11 12 -128 -9 -171 -26 -53 -55 -77 -126 -103 -56 -20 -75 -21
-285 -19 l-224 3 -2 205 c0 113 2 210 7 215 12 16 453 7 514 -10z"/>
<path d="M3920 5119 c-74 -11 -185 -67 -238 -120 -84 -83 -120 -155 -152 -299
-35 -159 29 -400 135 -505 82 -83 215 -134 345 -135 112 0 248 55 320 129 37
38 100 148 100 174 0 22 -138 71 -156 56 -8 -6 -14 -19 -14 -28 0 -29 -56
-107 -93 -130 -46 -28 -190 -40 -262 -22 -63 16 -127 71 -162 140 -27 55 -28
60 -28 216 0 178 5 196 72 274 58 68 102 86 213 86 87 0 99 -2 137 -27 41 -27
113 -120 113 -145 0 -21 30 -15 102 19 44 20 68 37 68 48 0 24 -71 129 -112
166 -52 48 -149 93 -225 104 -77 11 -86 11 -163 -1z"/>
<path d="M4765 4331 c-62 -38 -80 -67 -80 -132 0 -54 3 -61 37 -95 97 -98 252
-19 235 119 -7 51 -30 83 -77 107 -49 25 -77 25 -115 1z"/>
<path d="M3780 3489 c0 -19 30 -130 45 -164 7 -16 21 -59 30 -95 8 -36 20 -74
26 -85 5 -11 20 -58 33 -105 26 -91 65 -222 116 -390 17 -58 42 -141 55 -185
14 -44 38 -125 56 -180 17 -55 42 -140 55 -190 14 -49 30 -100 36 -112 16 -32
-1 -109 -60 -278 -6 -16 -24 -73 -40 -125 -27 -88 -145 -456 -179 -560 -8 -25
-26 -83 -40 -130 -13 -47 -28 -89 -32 -95 -5 -5 -16 -41 -25 -80 -10 -38 -24
-83 -31 -100 -8 -16 -23 -61 -34 -100 -11 -38 -30 -96 -42 -128 -12 -31 -20
-59 -18 -61 4 -4 125 -8 199 -7 35 1 35 1 59 79 12 42 36 122 53 177 17 55 41
134 53 175 65 215 97 319 111 360 9 25 27 85 40 134 14 49 28 94 33 100 4 6
16 48 26 94 10 46 24 90 30 99 18 24 45 9 45 -25 0 -31 13 -76 36 -129 8 -17
14 -38 14 -47 0 -9 16 -67 36 -129 42 -135 82 -266 124 -407 17 -58 38 -125
46 -150 9 -25 26 -83 39 -130 13 -47 31 -110 40 -141 l18 -57 51 -6 c28 -3 79
-6 114 -6 74 0 75 3 37 115 -13 40 -33 107 -44 149 -11 41 -24 83 -29 93 -5
10 -19 54 -31 98 -11 44 -27 100 -35 125 -8 25 -31 99 -51 165 -20 66 -49 161
-65 210 -16 50 -32 108 -36 130 -3 22 -10 45 -14 50 -5 6 -20 51 -33 100 -14
50 -40 135 -57 190 -70 223 -70 227 -39 313 11 31 29 86 39 122 10 36 28 94
40 130 11 36 32 101 45 145 14 44 40 130 59 190 19 61 49 157 66 215 17 58 40
128 50 155 9 28 27 84 40 125 63 217 79 268 95 304 9 21 14 44 12 50 -3 8 -36
11 -103 10 -55 -1 -102 -2 -105 -3 -9 -2 -45 -106 -69 -201 -12 -47 -26 -89
-31 -94 -5 -6 -9 -17 -9 -27 0 -9 -16 -68 -36 -130 -19 -63 -48 -157 -64 -209
-16 -52 -38 -124 -50 -160 -11 -36 -30 -101 -41 -144 -11 -44 -23 -84 -28 -90
-5 -6 -11 -27 -15 -47 -7 -41 -33 -71 -40 -48 -2 8 -13 41 -24 74 -11 33 -26
85 -32 115 -7 30 -18 66 -25 80 -7 14 -20 59 -30 100 -10 41 -22 83 -27 93 -5
10 -18 53 -29 95 -11 42 -24 86 -29 97 -5 11 -16 47 -25 80 -9 33 -30 105 -46
160 -16 55 -37 125 -45 155 -31 106 -24 100 -111 100 -43 0 -95 3 -115 6 -28
5 -38 3 -38 -7z"/>
<path d="M448 3434 c-5 -4 -8 -322 -8 -706 l0 -698 38 0 c442 -5 691 5 747 30
11 5 45 16 75 26 119 37 256 135 318 227 39 58 89 172 102 229 36 170 17 389
-46 522 -82 172 -278 320 -475 357 -65 12 -741 24 -751 13z m747 -210 c132
-46 220 -122 278 -242 l32 -67 0 -180 0 -180 -34 -70 c-58 -116 -155 -203
-261 -234 -25 -7 -58 -18 -75 -25 -19 -7 -110 -11 -250 -11 l-220 0 -3 524 -2
524 227 -5 c216 -5 232 -7 308 -34z"/>
<path d="M2170 2735 l0 -704 548 -3 c301 -2 557 -1 570 1 21 3 22 8 22 92 l0
89 -462 2 -463 3 -3 209 c-1 118 2 214 7 219 5 5 154 8 350 8 l342 -2 -3 93
-3 93 -335 2 c-184 1 -341 2 -348 3 -10 0 -12 45 -10 208 l3 207 443 0 442 0
0 93 0 92 -550 0 -550 0 0 -705z"/>
<path d="M795 1750 l-350 -5 -2 -650 c-2 -357 0 -674 3 -702 l5 -53 75 0 74 0
0 315 0 315 220 0 220 0 0 90 0 90 -220 0 -219 0 -3 200 c-2 110 -1 205 0 210
2 6 111 10 293 10 l290 0 -3 92 c-2 74 -6 93 -18 93 -8 0 -172 -2 -365 -5z"/>
<path d="M1509 1426 c-110 -39 -211 -177 -244 -334 -20 -96 -20 -317 0 -411
30 -144 118 -271 225 -324 44 -22 67 -27 131 -27 66 0 84 4 135 31 32 17 72
43 87 58 45 41 95 135 119 219 11 43 25 86 30 97 5 12 8 84 6 160 -4 154 -25
253 -75 353 -32 62 -118 146 -178 173 -48 22 -181 25 -236 5z m200 -171 c44
-22 79 -68 108 -135 24 -58 27 -81 31 -208 4 -134 3 -147 -23 -228 -43 -135
-97 -184 -204 -184 -109 0 -174 67 -210 215 -28 120 -28 248 0 352 31 114 80
183 145 203 36 11 118 3 153 -15z"/>
<path d="M2494 1423 c-17 -10 -51 -33 -75 -51 l-44 -34 -9 34 c-4 18 -10 39
-12 46 -3 9 -21 12 -61 10 l-58 -3 0 -540 0 -540 72 -3 72 -3 3 368 c2 264 6
374 15 388 7 11 19 37 29 57 9 21 34 54 56 74 41 36 41 36 115 32 68 -5 74 -4
78 16 24 113 26 139 15 150 -6 6 -46 12 -88 13 -59 2 -84 -1 -108 -14z"/>
<path d="M3047 1416 c-94 -46 -160 -134 -210 -279 -30 -88 -31 -99 -32 -253 0
-101 4 -170 11 -185 7 -13 21 -54 32 -90 38 -120 107 -205 206 -254 51 -25 64
-27 144 -23 80 4 92 7 147 42 66 42 117 101 143 166 l16 43 -49 43 c-28 24
-54 44 -58 44 -4 0 -14 -12 -20 -27 -47 -104 -102 -143 -200 -143 -81 0 -136
40 -181 133 -44 90 -57 180 -30 195 11 5 28 6 39 1 32 -12 503 -11 511 2 3 6
9 48 11 93 5 69 1 101 -23 196 -33 130 -74 204 -147 264 -56 46 -91 56 -187
56 -58 -1 -86 -6 -123 -24z m235 -180 c44 -33 83 -110 92 -181 10 -85 26 -82
-309 -57 l-100 7 -3 34 c-5 49 57 167 105 204 35 26 44 28 108 25 58 -3 76 -8
107 -32z"/>
</g>
</svg>
