<?xml version="1.0" standalone="no"?>
<!DOCTYPE svg PUBLIC "-//W3C//DTD SVG 20010904//EN"
 "http://www.w3.org/TR/2001/REC-SVG-20010904/DTD/svg10.dtd">
<svg version="1.0" xmlns="http://www.w3.org/2000/svg"
 width="" height="" viewBox="0 0 540.000000 540.000000"
 preserveAspectRatio="xMidYMid meet">

<g transform="translate(0.000000,540.000000) scale(0.100000,-0.100000)"
fill="#1969ff" stroke="none">
<path d="M2090 4446 l0 -716 278 0 c376 0 475 13 603 81 125 67 192 179 193
324 1 72 -3 88 -32 147 -41 84 -96 132 -177 157 l-60 19 41 11 c69 19 118 62
156 138 30 62 33 75 33 163 0 81 -4 103 -27 152 -51 110 -149 185 -283 218
-32 8 -174 14 -387 17 l-338 5 0 -716z m718 480 c61 -34 89 -75 98 -140 10
-67 -11 -129 -57 -170 -61 -56 -113 -66 -346 -66 l-203 0 0 206 0 206 228 -4
227 -3 53 -29z m-10 -591 c74 -22 118 -65 138 -133 23 -79 7 -149 -46 -202
-62 -62 -106 -70 -367 -70 l-223 0 0 210 0 210 223 0 c172 0 235 -4 275 -15z"/>
<path d="M3844 5145 c-124 -27 -240 -108 -299 -209 -49 -83 -67 -154 -72 -281
-9 -201 37 -336 152 -444 104 -99 254 -144 404 -122 155 23 265 103 334 241
l38 74 -88 32 c-90 32 -103 33 -103 8 0 -8 -11 -37 -25 -64 -43 -85 -129 -126
-249 -118 -82 5 -135 27 -182 76 -69 71 -100 179 -91 322 6 111 35 186 92 244
53 53 115 76 202 76 109 0 179 -45 224 -143 13 -29 24 -53 25 -55 0 -1 42 17
91 41 l91 43 -28 54 c-95 187 -294 274 -516 225z"/>
<path d="M987 5142 c-3 -4 -128 -309 -277 -677 -150 -369 -278 -685 -285 -702
l-14 -33 113 0 112 0 75 188 75 187 316 3 316 2 75 -187 75 -188 111 -3 c61
-1 111 1 111 5 0 4 -128 323 -283 708 l-283 700 -116 3 c-64 1 -119 -1 -121
-6z m266 -614 l85 -218 -234 0 c-129 0 -234 2 -234 4 0 6 222 580 228 590 3 5
20 -28 38 -75 18 -46 71 -182 117 -301z"/>
<path d="M4723 4373 c-65 -13 -113 -108 -93 -184 31 -113 171 -143 249 -54 27
31 31 43 31 92 0 109 -75 168 -187 146z"/>
<path d="M3710 3756 c0 -2 106 -377 235 -833 129 -455 235 -836 235 -845 0
-14 -474 -1612 -510 -1720 l-9 -28 127 0 127 0 189 658 c104 361 192 660 195
664 3 4 91 -292 196 -658 l189 -664 123 0 c68 0 123 3 123 7 0 4 -110 397
-245 874 -135 476 -245 875 -245 886 0 11 107 388 239 839 l238 819 -115 3
c-63 1 -117 1 -119 -2 -3 -3 -85 -282 -182 -620 -97 -338 -179 -617 -181 -620
-3 -2 -84 275 -181 617 l-176 622 -126 3 c-70 1 -127 1 -127 -2z"/>
<path d="M440 2746 l0 -716 278 0 c299 0 415 9 532 41 129 35 215 84 305 174
141 140 187 264 187 500 0 110 -4 157 -21 218 -55 207 -196 361 -398 434 -139
50 -178 55 -540 60 l-343 5 0 -716z m713 495 c104 -27 152 -54 222 -125 97
-97 135 -202 135 -371 0 -170 -47 -294 -147 -385 -114 -104 -210 -130 -490
-130 l-203 0 0 515 0 515 203 0 c169 0 217 -3 280 -19z"/>
<path d="M2170 2745 l0 -715 570 0 570 0 0 100 0 100 -460 0 -460 0 0 215 0
215 345 0 345 0 0 95 0 95 -345 0 -345 0 0 205 0 205 445 0 445 0 0 100 0 100
-555 0 -555 0 0 -715z"/>
<path d="M430 1060 l0 -710 75 0 75 0 0 310 0 310 210 0 210 0 0 100 0 100
-210 0 -210 0 2 203 3 202 263 3 262 2 0 95 0 95 -340 0 -340 0 0 -710z"/>
<path d="M1422 1443 c-23 -8 -67 -37 -97 -65 -121 -110 -181 -337 -155 -587
30 -289 158 -455 350 -455 161 1 274 113 331 329 28 107 30 334 4 445 -62 265
-239 402 -433 333z m159 -179 c79 -32 130 -141 144 -304 8 -93 -5 -215 -31
-294 -10 -30 -34 -67 -63 -97 -47 -49 -48 -49 -111 -49 -63 0 -64 1 -110 48
-72 75 -109 225 -95 392 13 160 62 266 138 301 52 23 75 24 128 3z"/>
<path d="M2334 1441 c-23 -10 -60 -36 -83 -56 l-41 -37 0 30 c0 56 -7 62 -71
62 l-59 0 0 -545 0 -545 74 0 75 0 3 368 c3 359 4 368 26 417 48 104 117 147
193 121 24 -8 44 -14 45 -13 2 1 8 42 14 91 15 108 9 118 -77 123 -42 3 -69
-2 -99 -16z"/>
<path d="M2680 1385 l0 -75 390 0 390 0 0 75 0 75 -390 0 -390 0 0 -75z"/>
<path d="M2760 915 l0 -75 310 0 310 0 0 75 0 75 -310 0 -310 0 0 -75z"/>
<path d="M2650 405 l0 -75 420 0 420 0 0 75 0 75 -420 0 -420 0 0 -75z"/>
</g>
</svg>