<?xml version="1.0" standalone="no"?>
<!DOCTYPE svg PUBLIC "-//W3C//DTD SVG 20010904//EN"
 "http://www.w3.org/TR/2001/REC-SVG-20010904/DTD/svg10.dtd">
<svg version="1.0" xmlns="http://www.w3.org/2000/svg"
 width="" height="" viewBox="0 0 1080.000000 540.000000"
 preserveAspectRatio="xMidYMid meet">

<g transform="translate(0.000000,540.000000) scale(0.100000,-0.100000)"
fill="#1969ff" stroke="none">
<path d="M6420 2835 l0 -1485 125 0 125 0 0 650 0 650 375 0 375 0 0 205 0
205 -375 0 -375 0 0 425 0 425 480 0 480 0 0 205 0 205 -605 0 -605 0 0 -1485z"/>
<path d="M3020 3965 c0 -192 1 -206 20 -225 13 -13 33 -20 59 -20 32 0 40 4
45 23 9 33 8 34 -25 29 -20 -3 -34 0 -40 9 -5 8 -9 98 -9 202 l0 187 -25 0
-25 0 0 -205z"/>
<path d="M3950 3945 l0 -225 30 0 c29 0 30 1 30 48 0 38 5 53 23 70 13 12 27
22 33 22 5 0 31 -32 57 -70 44 -63 51 -70 82 -70 l34 0 -64 93 -64 92 62 63
61 62 -35 0 c-30 0 -47 -11 -112 -71 l-77 -71 0 141 0 141 -30 0 -30 0 0 -225z"/>
<path d="M4730 3945 l0 -225 30 0 30 0 0 101 c0 55 5 109 11 121 15 29 72 50
103 38 38 -14 46 -40 46 -154 l0 -106 30 0 30 0 0 98 c0 116 -12 164 -47 192
-32 25 -118 28 -151 4 l-22 -15 0 85 0 86 -30 0 -30 0 0 -225z"/>
<path d="M5480 4155 c-26 -32 13 -81 48 -59 34 22 22 74 -18 74 -10 0 -23 -7
-30 -15z"/>
<path d="M2032 3978 c-33 -84 -69 -177 -81 -206 l-21 -53 31 3 c28 3 34 9 51
56 l20 53 91 -3 91 -3 21 -52 c18 -47 23 -53 49 -53 23 0 27 3 22 18 -4 9 -39
101 -79 204 l-72 188 -32 0 c-31 0 -32 0 -91 -152z m96 -86 c-33 -2 -62 -1
-65 2 -4 4 11 50 47 141 l12 30 33 -85 32 -85 -59 -3z"/>
<path d="M2620 3925 l0 -207 103 4 c123 4 165 23 184 82 15 44 -2 97 -36 116
-21 11 -21 11 5 33 44 38 34 123 -19 157 -14 9 -60 16 -129 18 l-108 4 0 -207z
m209 131 c26 -23 27 -47 3 -76 -15 -18 -29 -22 -87 -23 l-70 -2 -3 49 c-5 76
-2 79 73 74 44 -3 70 -10 84 -22z m11 -176 c24 -24 25 -48 4 -78 -13 -20 -24
-22 -95 -22 l-79 0 0 60 0 60 75 0 c62 0 79 -4 95 -20z"/>
<path d="M4380 4109 c-62 -38 -88 -92 -89 -184 -1 -127 69 -205 185 -205 58 0
103 20 137 59 32 39 33 47 6 61 -18 10 -25 7 -54 -27 -31 -36 -36 -38 -88 -38
-48 0 -60 4 -86 29 -63 60 -60 188 5 246 28 24 44 30 80 30 39 0 51 -5 79 -33
27 -27 37 -31 54 -23 12 5 21 14 21 21 0 18 -46 64 -75 75 -47 18 -137 12
-175 -11z"/>
<path d="M3264 4011 c-39 -24 -64 -76 -64 -136 0 -90 51 -147 138 -153 47 -3
63 0 92 20 68 45 88 134 50 213 -11 22 -33 48 -49 58 -40 23 -127 23 -167 -2z
m154 -57 c17 -19 22 -37 22 -80 0 -71 -28 -104 -90 -104 -78 0 -121 81 -84
157 33 67 105 80 152 27z"/>
<path d="M3644 4012 c-57 -37 -84 -145 -50 -210 36 -70 124 -102 196 -72 33
14 75 64 66 79 -8 12 -46 21 -46 10 0 -5 -9 -18 -20 -29 -22 -22 -79 -27 -112
-9 -29 16 -51 74 -43 119 13 80 103 113 152 56 21 -25 27 -27 49 -17 28 12 23
30 -16 66 -32 29 -135 33 -176 7z"/>
<path d="M5170 4023 c-23 -9 -60 -45 -60 -59 0 -7 9 -18 20 -24 15 -8 21 -6
29 9 30 56 140 40 141 -21 0 -12 -15 -19 -57 -28 -81 -15 -122 -36 -133 -66
-15 -40 -12 -53 19 -85 34 -34 92 -39 142 -13 28 14 32 14 48 0 10 -9 32 -16
49 -16 27 0 32 4 32 25 0 18 -5 25 -19 25 -17 0 -19 10 -23 101 -4 99 -4 102
-36 130 -27 24 -40 29 -85 28 -28 0 -59 -3 -67 -6z m130 -188 c0 -38 -33 -65
-79 -65 -76 0 -80 54 -5 77 65 19 84 17 84 -12z"/>
<path d="M5480 3875 l0 -155 30 0 30 0 0 155 0 155 -30 0 -30 0 0 -155z"/>
<path d="M5660 3875 l0 -155 25 0 c25 0 25 1 25 89 0 48 5 102 10 118 16 44
61 64 112 50 35 -9 48 -54 48 -169 0 -87 0 -88 25 -88 l25 0 0 115 c0 128 -10
163 -55 183 -36 17 -100 15 -135 -3 -27 -14 -30 -14 -30 0 0 9 -9 15 -25 15
l-25 0 0 -155z"/>
<path d="M7740 3615 c0 -3 104 -252 230 -555 127 -302 230 -555 230 -561 0
-10 -465 -1081 -492 -1131 -8 -17 2 -18 139 -18 l149 0 168 398 c93 218 172
401 176 405 4 4 67 -138 140 -315 73 -178 149 -360 168 -405 l34 -83 149 0
c82 0 149 3 149 8 0 4 -107 265 -239 580 l-238 574 237 554 238 554 -148 0
c-109 0 -149 -3 -153 -12 -110 -273 -299 -734 -305 -745 -6 -10 -58 105 -167
371 l-159 386 -153 0 c-84 0 -153 -2 -153 -5z"/>
<path d="M4712 3216 c3 -184 5 -206 22 -225 13 -14 31 -21 58 -21 32 0 40 4
48 26 6 14 10 26 10 27 0 1 -17 2 -37 2 l-38 0 -3 198 -2 197 -31 0 -31 0 4
-204z"/>
<path d="M4922 3411 c-8 -5 -12 -21 -10 -37 3 -25 7 -29 33 -29 26 0 30 4 33
29 3 27 -10 46 -33 46 -5 0 -16 -4 -23 -9z"/>
<path d="M6010 3334 l0 -86 -25 16 c-14 9 -45 16 -74 16 -39 0 -56 -6 -82 -27
-76 -65 -79 -184 -4 -253 22 -21 37 -25 85 -25 42 0 63 5 78 18 20 18 20 18
27 -2 4 -14 15 -21 31 -21 l24 0 0 225 0 225 -30 0 -30 0 0 -86z m-56 -108
c41 -17 61 -61 53 -119 -11 -80 -99 -116 -152 -62 -51 50 -28 168 36 186 13 4
25 7 27 8 1 1 17 -5 36 -13z"/>
<path d="M1930 3175 l0 -205 73 0 c183 1 258 60 258 204 0 76 -17 123 -60 159
-42 35 -89 47 -188 47 l-83 0 0 -205z m182 145 c78 -22 117 -118 83 -206 -24
-63 -61 -84 -147 -84 l-68 0 0 150 0 150 48 0 c26 0 64 -5 84 -10z"/>
<path d="M3888 3358 c-23 -8 -28 -15 -28 -44 0 -31 -3 -34 -30 -34 -25 0 -30
-4 -30 -25 0 -21 5 -25 29 -25 l29 0 4 -111 c3 -102 5 -112 27 -130 27 -22 98
-26 125 -6 13 10 16 20 12 35 -8 23 -21 28 -31 12 -9 -14 -48 -13 -63 2 -8 8
-12 46 -12 105 l0 93 55 0 c52 0 55 1 55 25 0 24 -3 25 -54 25 l-55 0 -3 43
c-3 43 -4 44 -30 35z"/>
<path d="M2414 3261 c-62 -38 -85 -152 -44 -219 32 -53 75 -74 143 -69 46 3
63 9 87 32 23 22 27 32 19 42 -15 18 -26 16 -56 -7 -31 -24 -90 -26 -120 -5
-11 8 -26 28 -31 45 l-11 30 115 0 c101 0 114 2 115 18 4 65 -18 115 -61 137
-41 21 -118 19 -156 -4z m141 -43 c6 -7 25 -47 25 -52 0 -3 -38 -6 -85 -6 -64
0 -85 3 -85 13 0 18 40 54 65 59 17 4 74 -6 80 -14z"/>
<path d="M2779 3257 c-44 -29 -63 -69 -63 -132 0 -101 63 -160 163 -152 48 3
59 9 89 41 35 39 34 49 -5 61 -17 5 -23 2 -23 -9 0 -38 -94 -62 -131 -33 -61
47 -48 171 20 195 39 14 71 5 97 -25 18 -21 25 -23 43 -14 24 13 25 20 8 41
-43 55 -137 68 -198 27z"/>
<path d="M3133 3260 c-43 -26 -63 -68 -63 -132 0 -99 57 -158 151 -158 50 0
111 32 117 62 5 25 -27 30 -55 8 -53 -41 -140 -15 -158 48 -6 22 -6 22 109 22
l116 0 0 40 c0 52 -23 96 -60 115 -41 21 -118 19 -157 -5z m139 -47 c9 -8 18
-23 21 -34 5 -18 -1 -19 -79 -19 -46 0 -84 4 -84 9 0 58 92 87 142 44z"/>
<path d="M3450 3125 l0 -155 30 0 30 0 0 101 c0 55 5 109 11 121 15 29 72 50
103 38 38 -14 46 -40 46 -154 l0 -106 30 0 30 0 0 98 c0 166 -27 212 -124 212
-30 0 -60 -6 -72 -15 -25 -19 -34 -19 -34 0 0 9 -9 15 -25 15 l-25 0 0 -155z"/>
<path d="M4110 3125 l0 -155 24 0 c24 0 24 2 28 104 3 94 5 107 27 130 15 16
37 26 60 28 29 2 37 8 39 26 3 20 -1 22 -40 22 -24 0 -54 -7 -66 -16 -20 -14
-23 -14 -28 0 -3 9 -15 16 -25 16 -18 0 -19 -10 -19 -155z"/>
<path d="M4372 3244 l-35 -35 23 -16 c21 -15 23 -14 44 12 29 36 90 40 117 6
31 -38 24 -49 -38 -60 -111 -21 -155 -61 -139 -124 12 -51 105 -74 167 -42 27
14 31 14 46 0 23 -24 77 -16 81 12 2 16 -3 22 -20 25 -22 3 -23 8 -28 106 -5
98 -6 105 -33 128 -23 20 -39 24 -89 24 -55 0 -63 -3 -96 -36z m168 -153 c0
-10 -10 -30 -21 -45 -18 -23 -27 -27 -68 -24 -41 3 -46 6 -49 29 -2 21 3 28
25 37 68 27 113 28 113 3z"/>
<path d="M4920 3125 l0 -155 25 0 25 0 0 155 0 155 -25 0 -25 0 0 -155z"/>
<path d="M5070 3255 c0 -25 0 -25 95 -25 l96 0 -96 -107 c-60 -69 -95 -116
-95 -130 0 -23 2 -23 130 -23 l130 0 0 25 c0 25 0 25 -96 25 l-96 0 96 109
c56 64 96 118 96 130 0 20 -5 21 -130 21 l-130 0 0 -25z"/>
<path d="M5490 3273 c-60 -22 -101 -117 -81 -190 22 -82 80 -120 168 -110 73
8 132 66 84 82 -14 4 -28 -1 -43 -14 -25 -24 -93 -28 -119 -8 -18 13 -39 50
-39 66 0 7 41 11 116 11 l117 0 -5 52 c-5 44 -11 57 -42 85 -31 29 -42 33 -88
32 -29 0 -60 -3 -68 -6z m123 -61 c9 -8 17 -23 17 -34 0 -16 -9 -18 -78 -18
-43 0 -82 3 -85 6 -12 12 14 46 46 59 35 15 73 10 100 -13z"/>
<path d="M3030 2395 l0 -225 24 0 c24 0 24 2 28 104 3 94 5 107 27 130 27 29
54 36 93 23 36 -11 48 -55 48 -169 0 -87 0 -88 25 -88 l25 0 0 115 c0 128 -10
163 -55 183 -36 17 -100 15 -135 -3 l-30 -16 0 86 c0 84 0 85 -25 85 l-25 0 0
-225z"/>
<path d="M1950 2375 l0 -205 150 0 150 0 0 30 0 30 -120 0 -120 0 0 60 0 60
90 0 90 0 0 30 0 30 -90 0 -90 0 0 60 0 60 115 0 115 0 0 25 0 25 -145 0 -145
0 0 -205z"/>
<path d="M5587 2560 c-36 -28 -41 -63 -18 -115 l19 -44 -33 -26 c-68 -51 -68
-145 -1 -186 40 -24 119 -24 165 0 34 18 36 18 65 0 38 -23 62 -24 70 -3 8 22
8 24 -8 24 -8 0 -24 8 -37 18 -22 19 -22 20 -6 61 9 23 17 55 17 71 0 25 -4
30 -25 30 -22 0 -25 -4 -25 -37 0 -21 -5 -45 -10 -53 -9 -12 -15 -9 -40 20
-52 60 -53 66 -21 89 54 39 63 124 18 156 -31 22 -99 19 -130 -5z m97 -36 c22
-21 20 -43 -6 -71 -26 -28 -44 -29 -58 -4 -31 60 20 120 64 75z m-29 -201 c75
-93 71 -81 31 -98 -65 -27 -126 3 -126 62 0 33 28 73 53 73 6 0 26 -17 42 -37z"/>
<path d="M4361 2511 c-23 -25 -36 -29 -93 -33 -53 -3 -73 -9 -92 -27 -36 -34
-42 -74 -17 -121 17 -33 18 -40 5 -50 -16 -14 -19 -66 -3 -75 7 -5 3 -14 -10
-26 -49 -46 -9 -113 79 -130 102 -21 194 24 194 95 0 57 -20 69 -123 76 -49 3
-93 8 -96 12 -16 16 5 38 37 38 116 0 177 62 148 151 -15 44 -3 69 32 69 14 0
18 5 14 16 -3 9 -6 20 -6 25 0 20 -43 7 -69 -20z m-43 -87 c49 -34 15 -104
-50 -104 -32 0 -68 31 -68 58 1 51 71 79 118 46z m51 -268 c21 -25 -18 -58
-75 -63 -79 -8 -134 25 -104 62 17 20 162 21 179 1z"/>
<path d="M2320 2474 c0 -4 23 -37 51 -75 31 -42 48 -73 43 -81 -4 -7 -29 -41
-56 -74 -26 -34 -48 -65 -48 -68 0 -3 13 -6 29 -6 23 0 37 11 70 55 23 30 43
55 45 55 2 0 22 -25 45 -55 34 -45 47 -55 71 -55 17 0 30 2 30 5 0 3 -22 36
-50 74 -27 38 -50 75 -50 82 0 7 19 38 43 68 63 81 63 81 25 81 -28 0 -38 -8
-67 -50 -18 -28 -36 -50 -40 -50 -4 0 -24 23 -44 50 -30 40 -43 50 -67 50 -17
0 -30 -3 -30 -6z"/>
<path d="M2735 2470 c-11 -4 -30 -18 -42 -31 -66 -72 -54 -193 26 -246 63 -42
169 -22 202 38 10 19 9 25 -7 36 -21 16 -34 17 -34 3 0 -5 -9 -19 -20 -30 -29
-29 -94 -27 -125 5 -33 32 -36 119 -5 157 34 44 102 43 139 -3 15 -18 21 -20
39 -10 26 14 18 37 -24 70 -28 22 -108 28 -149 11z"/>
<path d="M3455 2468 c-21 -11 -54 -48 -55 -60 0 -4 9 -12 21 -18 17 -9 23 -7
39 13 35 44 111 41 129 -5 12 -31 3 -38 -75 -54 -81 -17 -114 -43 -114 -90 0
-50 28 -76 88 -82 38 -3 58 0 77 12 23 15 28 15 47 1 29 -20 74 -19 82 1 10
27 7 34 -19 34 l-25 0 0 101 c0 98 -1 101 -29 130 -26 25 -36 29 -88 29 -32 0
-67 -6 -78 -12z m141 -185 c-10 -40 -42 -63 -87 -63 -45 0 -67 26 -46 53 12
16 69 34 116 36 20 1 22 -2 17 -26z"/>
<path d="M3770 2325 l0 -155 30 0 30 0 0 94 c0 52 4 106 10 120 17 47 93 65
130 31 18 -16 20 -31 20 -132 l0 -113 31 0 31 0 -4 126 -3 126 -33 29 c-27 24
-41 29 -85 29 -31 0 -61 -6 -75 -16 -20 -14 -23 -14 -28 0 -3 9 -17 16 -30 16
l-24 0 0 -155z"/>
<path d="M4539 2453 c-112 -95 -54 -283 88 -283 52 0 109 24 124 53 8 15 8 22
-2 28 -21 13 -34 11 -54 -11 -27 -30 -98 -28 -130 5 -14 13 -25 33 -25 45 0
19 6 20 115 20 l115 0 0 30 c0 44 -23 93 -55 118 -43 34 -133 31 -176 -5z
m122 -23 c14 0 49 -39 49 -55 0 -12 -16 -15 -85 -15 -47 0 -85 4 -85 9 0 4 9
20 20 34 20 25 52 38 78 31 8 -2 18 -4 23 -4z"/>
<path d="M5020 1595 l0 -225 25 0 c23 0 25 4 25 43 0 35 6 49 29 71 16 16 33
26 38 23 5 -3 29 -35 53 -71 40 -58 49 -66 78 -66 38 0 40 -6 -35 102 -29 42
-53 80 -53 84 0 5 26 34 57 66 l57 58 -35 0 c-30 0 -44 -10 -104 -70 -38 -38
-73 -70 -77 -70 -5 0 -8 63 -8 140 l0 140 -25 0 -25 0 0 -225z"/>
<path d="M1980 1575 l0 -205 30 0 30 0 0 90 0 90 90 0 90 0 0 30 0 30 -90 0
-90 0 0 60 0 60 115 0 115 0 0 25 0 25 -145 0 -145 0 0 -205z"/>
<path d="M3880 1575 l0 -205 26 0 26 0 -4 174 c-2 96 -2 173 -1 172 3 -3 123
-337 123 -343 0 -1 11 -3 24 -3 21 0 28 14 80 163 31 89 60 167 64 174 4 6 5
-67 4 -163 l-4 -174 26 0 26 0 0 205 0 205 -39 0 -39 0 -41 -112 c-22 -62 -49
-140 -59 -173 l-19 -60 -12 45 c-7 25 -33 102 -58 173 l-46 127 -38 0 -39 0 0
-205z"/>
<path d="M5768 1758 c-23 -8 -28 -15 -28 -44 0 -31 -3 -34 -30 -34 -25 0 -30
-4 -30 -25 0 -21 5 -25 29 -25 l29 0 4 -111 c3 -102 5 -112 27 -130 27 -22 98
-26 125 -6 13 10 16 20 12 35 -8 23 -21 28 -31 12 -9 -14 -48 -13 -63 2 -8 8
-12 46 -12 105 l0 93 55 0 c52 0 55 1 55 25 0 24 -3 25 -54 25 l-55 0 -3 43
c-3 43 -4 44 -30 35z"/>
<path d="M2369 1657 c-19 -12 -41 -36 -48 -52 -22 -44 -19 -124 5 -165 51 -89
202 -93 254 -8 25 41 27 135 5 179 -36 69 -147 92 -216 46z m125 -31 c60 -25
75 -129 25 -182 -35 -37 -99 -34 -133 7 -46 54 -30 149 29 175 38 17 39 17 79
0z"/>
<path d="M2700 1525 l0 -155 30 0 30 0 0 95 c0 132 18 165 91 165 16 0 29 4
29 9 0 5 3 16 6 25 5 13 -2 16 -38 16 -24 0 -53 -7 -64 -15 -25 -19 -34 -19
-34 0 0 9 -9 15 -25 15 l-25 0 0 -155z"/>
<path d="M3020 1673 c-60 -22 -101 -117 -81 -190 22 -82 80 -120 168 -110 73
8 132 66 84 82 -14 4 -28 -1 -43 -14 -25 -24 -93 -28 -119 -8 -18 13 -39 50
-39 66 0 7 41 11 116 11 l117 0 -5 52 c-5 44 -11 57 -42 85 -31 29 -42 33 -88
32 -29 0 -60 -3 -68 -6z m123 -61 c9 -8 17 -23 17 -34 0 -16 -9 -18 -78 -18
-43 0 -82 3 -85 6 -12 12 14 46 46 59 35 15 73 10 100 -13z"/>
<path d="M3280 1674 c0 -4 23 -37 51 -75 31 -42 48 -73 43 -81 -4 -7 -29 -41
-56 -74 -26 -34 -48 -65 -48 -68 0 -3 13 -6 29 -6 23 0 37 11 70 55 23 30 43
55 45 55 2 0 22 -25 45 -55 34 -45 47 -55 71 -55 17 0 30 2 30 5 0 3 -22 36
-50 74 -27 38 -50 75 -50 82 0 7 19 38 43 68 63 81 63 81 25 81 -28 0 -38 -8
-67 -50 -18 -28 -36 -50 -40 -50 -4 0 -24 23 -44 50 -30 40 -43 50 -67 50 -17
0 -30 -3 -30 -6z"/>
<path d="M4435 1668 c-21 -11 -54 -48 -55 -60 0 -4 9 -12 21 -18 17 -9 23 -7
39 13 35 44 111 41 129 -5 12 -31 3 -38 -75 -54 -81 -17 -114 -43 -114 -90 0
-50 28 -76 88 -82 38 -3 58 0 77 12 23 15 28 15 47 1 29 -20 74 -19 82 1 10
27 7 34 -19 34 l-25 0 0 101 c0 98 -1 101 -29 130 -26 25 -36 29 -88 29 -32 0
-67 -6 -78 -12z m141 -185 c-10 -40 -42 -63 -87 -63 -45 0 -67 26 -46 53 12
16 69 34 116 36 20 1 22 -2 17 -26z"/>
<path d="M4750 1525 l0 -155 30 0 30 0 0 95 c0 132 18 165 91 165 16 0 29 4
29 9 0 5 3 16 6 25 5 13 -2 16 -38 16 -24 0 -53 -7 -64 -15 -25 -19 -34 -19
-34 0 0 9 -9 15 -25 15 l-25 0 0 -155z"/>
<path d="M5430 1673 c-60 -22 -101 -117 -81 -190 22 -82 80 -120 168 -110 73
8 132 66 84 82 -14 4 -28 -1 -43 -14 -25 -24 -93 -28 -119 -8 -18 13 -39 50
-39 66 0 7 41 11 116 11 l117 0 -5 52 c-5 44 -11 57 -42 85 -31 29 -42 33 -88
32 -29 0 -60 -3 -68 -6z m123 -61 c9 -8 17 -23 17 -34 0 -16 -9 -18 -78 -18
-43 0 -82 3 -85 6 -12 12 14 46 46 59 35 15 73 10 100 -13z"/>
</g>
</svg>
